<?xml version="1.0" encoding="utf-8"?>
<!-- Generator: Adobe Illustrator 21.1.0, SVG Export Plug-In . SVG Version: 6.00 Build 0)  -->
<!DOCTYPE svg PUBLIC "-//W3C//DTD SVG 1.1//EN" "http://www.w3.org/Graphics/SVG/1.1/DTD/svg11.dtd">
<svg version="1.1" id="Layer_1" xmlns="http://www.w3.org/2000/svg" xmlns:xlink="http://www.w3.org/1999/xlink" x="0px" y="0px"
	 width="152.7px" height="11.4px" viewBox="0 0 152.7 11.4" style="enable-background:new 0 0 152.7 11.4;" xml:space="preserve">
<style type="text/css">
	.st0{fill:#FFFFFF;}
</style>
<g>
	<path class="st0" d="M0,0.5h4.7v1.1H1.2V4h3.2v1.1H1.2v2.8h3.5v1.1H0V0.5z"/>
	<path class="st0" d="M6.5,2.8h1.1v1h0C8,3,8.8,2.6,9.6,2.6c1.6,0,2.3,1,2.3,2.6v3.6h-1.1V5.7c0-1.4-0.3-2.1-1.3-2.2
		c-1.3,0-1.9,1-1.9,2.5v2.8H6.5V2.8z"/>
	<path class="st0" d="M17.7,3.8c-0.4-0.2-0.9-0.3-1.2-0.3c-1.3,0-2,1.1-2,2.3c0,1.1,0.6,2.3,2,2.3c0.4,0,0.9-0.1,1.2-0.3l0.1,1
		C17.4,9,16.9,9,16.5,9c-1.8,0-3.1-1.5-3.1-3.2c0-1.9,1.2-3.2,3.1-3.2c0.5,0,1,0.1,1.4,0.2L17.7,3.8z"/>
	<path class="st0" d="M21.9,2.6C23.7,2.6,25,4,25,5.8C25,7.6,23.7,9,21.9,9c-1.8,0-3.1-1.5-3.1-3.2C18.8,4,20,2.6,21.9,2.6z
		 M21.9,8.1c1.3,0,1.9-1.2,1.9-2.3c0-1.2-0.7-2.3-1.9-2.3c-1.2,0-1.9,1.1-1.9,2.3C20,6.9,20.5,8.1,21.9,8.1z"/>
	<path class="st0" d="M26.5,2.8h1.1v0.9h0c0.4-0.7,1-1,1.9-1c0.7,0,1.4,0.4,1.7,1.2c0.4-0.9,1.3-1.2,1.9-1.2c1.6,0,2.1,1,2.1,2.3
		v3.9h-1.1V5.2c0-0.8-0.2-1.7-1.1-1.7c-1.2,0-1.6,1.1-1.6,2.3v3.1h-1.1V5.2c0-0.8-0.2-1.7-1.1-1.7c-1.2,0-1.6,1.1-1.6,2.3v3.1h-1.1
		V2.8z"/>
	<path class="st0" d="M37.2,2.8h1.1v0.9h0c0.3-0.5,1-1,2.1-1c1.8,0,2.6,1.5,2.6,3.1C43,7.4,42.2,9,40.4,9c-1.1,0-1.7-0.4-2-1h0v3.4
		h-1.1V2.8z M40.1,3.5c-1.2,0-1.8,1.2-1.8,2.3c0,1,0.5,2.3,1.8,2.3c1.2,0,1.7-1.4,1.7-2.3C41.8,4.7,41.3,3.5,40.1,3.5z"/>
	<path class="st0" d="M44.8,3.2c0.6-0.3,1.2-0.6,2-0.6c1.8,0,2.5,0.9,2.5,2.5v2.5c0,0.7,0,1,0,1.2h-1.1V8.1h0C48,8.5,47.4,9,46.3,9
		c-1.3,0-2.2-0.6-2.2-1.9c0-1.5,1.7-2,2.8-2c0.4,0,0.8,0,1.2,0c0-1.1-0.4-1.6-1.5-1.6c-0.6,0-1.3,0.2-1.8,0.6L44.8,3.2z M48.1,6
		c-0.2,0-0.5,0-0.7,0c-0.6,0-2.1,0.1-2.1,1.2c0,0.6,0.6,1,1.1,1c1.1,0,1.7-0.7,1.7-1.6V6z"/>
	<path class="st0" d="M50.7,7.7c0.4,0.3,1.1,0.4,1.4,0.4c0.5,0,1.2-0.2,1.2-0.9c0-1.1-2.7-1-2.7-2.7c0-1.3,0.9-1.9,2.2-1.9
		c0.5,0,1,0.1,1.4,0.2l-0.1,1c-0.3-0.2-0.9-0.3-1.2-0.3c-0.6,0-1.1,0.2-1.1,0.7c0,1.2,2.7,0.9,2.7,2.8c0,1.3-1,1.9-2.1,1.9
		c-0.6,0-1.2-0.1-1.7-0.3L50.7,7.7z"/>
	<path class="st0" d="M55.4,7.7c0.4,0.3,1.1,0.4,1.4,0.4c0.5,0,1.2-0.2,1.2-0.9c0-1.1-2.7-1-2.7-2.7c0-1.3,0.9-1.9,2.2-1.9
		c0.5,0,1,0.1,1.4,0.2l-0.1,1c-0.3-0.2-0.9-0.3-1.2-0.3c-0.6,0-1.1,0.2-1.1,0.7c0,1.2,2.7,0.9,2.7,2.8c0,1.3-1,1.9-2.1,1.9
		c-0.6,0-1.2-0.1-1.7-0.3L55.4,7.7z"/>
</g>
<g>
	<path class="st0" d="M63.9,0.5H66c1.6,0,2.6,0.8,2.6,2.4c0,1.6-1.2,2.4-2.7,2.4h-1.2v3.6h-0.8V0.5z M64.7,4.5h0.6
		c1.2,0,2.4-0.1,2.4-1.7c0-1.1-0.6-1.7-1.7-1.7h-1.3V4.5z"/>
	<path class="st0" d="M73.3,7.9L73.3,7.9C73,8.6,72.1,9,71.4,9c-1.7,0-2-1.2-2-1.7c0-2.1,2.2-2.1,3.8-2.1h0.1V4.8
		c0-1-0.4-1.6-1.4-1.6c-0.6,0-1.2,0.1-1.8,0.5V3c0.5-0.2,1.3-0.4,1.8-0.4c1.5,0,2.1,0.7,2.1,2.3v2.7c0,0.5,0,0.9,0.1,1.3h-0.7V7.9z
		 M73.3,5.8h-0.2c-1.3,0-2.9,0.1-2.9,1.5c0,0.8,0.6,1.1,1.3,1.1c1.8,0,1.8-1.5,1.8-2.2V5.8z"/>
	<path class="st0" d="M75.8,4.1c0-0.7,0-0.9,0-1.4h0.8v1.2h0c0.3-0.7,0.8-1.3,1.6-1.3c0.2,0,0.4,0,0.5,0.1v0.8
		c-0.2,0-0.4-0.1-0.6-0.1c-1.2,0-1.5,1.3-1.5,2.4v3h-0.8V4.1z"/>
	<path class="st0" d="M82.5,3.4h-1.4v4c0,0.6,0.2,1,0.8,1c0.3,0,0.5-0.1,0.7-0.1l0,0.6C82.4,8.9,82.1,9,81.7,9c-1.3,0-1.4-0.9-1.4-2
		V3.4h-1.2V2.8h1.2V1.3L81.1,1v1.7h1.4V3.4z"/>
	<path class="st0" d="M83.8,4.2c0-0.5,0-0.9,0-1.4h0.7v1.1h0c0.3-0.6,0.7-1.2,2-1.2c1.5,0,2.1,1,2.1,2.4v3.9h-0.8V5.2
		c0-1.2-0.4-1.9-1.5-1.9c-1.4,0-1.8,1.2-1.8,2.2v3.4h-0.8V4.2z"/>
	<path class="st0" d="M94.6,8.7C94.1,8.9,93.4,9,92.8,9c-2,0-2.8-1.4-2.8-3.2c0-1.9,1-3.2,2.6-3.2c1.7,0,2.4,1.4,2.4,3V6h-4.2
		c0,1.3,0.7,2.3,2,2.3c0.6,0,1.4-0.2,1.7-0.5V8.7z M94.2,5.4c0-1.1-0.4-2.1-1.6-2.1c-1.1,0-1.8,1.1-1.8,2.1H94.2z"/>
	<path class="st0" d="M96.5,4.1c0-0.7,0-0.9,0-1.4h0.8v1.2h0c0.3-0.7,0.8-1.3,1.6-1.3c0.2,0,0.4,0,0.5,0.1v0.8
		c-0.2,0-0.4-0.1-0.6-0.1c-1.2,0-1.5,1.3-1.5,2.4v3h-0.8V4.1z"/>
	<path class="st0" d="M109.7,1.4c-0.5-0.3-1.3-0.4-1.9-0.4c-2.2,0-3.4,1.5-3.4,3.6c0,2.1,1.2,3.6,3.4,3.6c0.6,0,1.4-0.1,1.9-0.4
		l0,0.7c-0.5,0.3-1.4,0.4-1.9,0.4c-2.6,0-4.2-1.7-4.2-4.3c0-2.5,1.6-4.3,4.2-4.3c0.5,0,1.5,0.1,1.9,0.3L109.7,1.4z"/>
	<path class="st0" d="M114.2,2.6c2,0,2.9,1.5,2.9,3.2S116.2,9,114.2,9c-2,0-2.9-1.5-2.9-3.2S112.2,2.6,114.2,2.6z M114.2,8.4
		c1.3,0,2-1.1,2-2.6s-0.7-2.6-2-2.6s-2,1.1-2,2.6S112.9,8.4,114.2,8.4z"/>
	<path class="st0" d="M118.5,4.2c0-0.5,0-0.9,0-1.4h0.7v1.1h0c0.3-0.6,0.7-1.2,2-1.2c1.5,0,2.1,1,2.1,2.4v3.9h-0.8V5.2
		c0-1.2-0.4-1.9-1.5-1.9c-1.4,0-1.8,1.2-1.8,2.2v3.4h-0.8V4.2z"/>
	<path class="st0" d="M125.2,4.2c0-0.5,0-0.9,0-1.4h0.7v1.1h0c0.3-0.6,0.7-1.2,2-1.2c1.5,0,2.1,1,2.1,2.4v3.9h-0.8V5.2
		c0-1.2-0.4-1.9-1.5-1.9c-1.4,0-1.8,1.2-1.8,2.2v3.4h-0.8V4.2z"/>
	<path class="st0" d="M135.9,8.7c-0.5,0.2-1.2,0.3-1.8,0.3c-2,0-2.8-1.4-2.8-3.2c0-1.9,1-3.2,2.6-3.2c1.7,0,2.4,1.4,2.4,3V6h-4.2
		c0,1.3,0.7,2.3,2,2.3c0.6,0,1.4-0.2,1.7-0.5V8.7z M135.6,5.4c0-1.1-0.4-2.1-1.6-2.1c-1.1,0-1.8,1.1-1.8,2.1H135.6z"/>
	<path class="st0" d="M141.8,3.6c-0.4-0.2-0.9-0.3-1.3-0.3c-1.5,0-2.3,1.1-2.3,2.6c0,1.4,0.8,2.6,2.2,2.6c0.5,0,0.9-0.1,1.4-0.3
		l0.1,0.7c-0.5,0.2-1,0.2-1.6,0.2c-2,0-2.9-1.5-2.9-3.2c0-1.9,1.2-3.2,3-3.2c0.7,0,1.3,0.2,1.5,0.2L141.8,3.6z"/>
	<path class="st0" d="M145.8,3.4h-1.4v4c0,0.6,0.2,1,0.8,1c0.3,0,0.5-0.1,0.7-0.1l0,0.6c-0.2,0.1-0.6,0.2-0.9,0.2
		c-1.3,0-1.4-0.9-1.4-2V3.4h-1.2V2.8h1.2V1.3l0.8-0.3v1.7h1.4V3.4z"/>
</g>
<g>
	<path class="st0" d="M147.6,0.3h-0.9V0h2.3v0.3H148v2.6h-0.4V0.3z M149.6,0h0.7l0.9,2.2L152,0h0.7v2.9h-0.4V0.4h0l-1,2.5H151
		l-1-2.5h0v2.5h-0.4V0z"/>
</g>
</svg>
